<svg aria-hidden="true" style="position: absolute; width: 0; height: 0; overflow: hidden;" version="1.1" xmlns="http://www.w3.org/2000/svg" xmlns:xlink="http://www.w3.org/1999/xlink">
<defs>
<symbol id="icon-cat" viewBox="0 0 32 32">
<path fill="#3e4347" style="fill: var(--color1, #3e4347)" d="M1.15 18.050c-0.1-0.5-0.15-1-0.1-1.45 0-0.6 0.15-1.1 0.45-1.6 0.3-0.55 0.8-1 1.35-1.25 0.55-0.3 1.25-0.4 1.9-0.3 0.6 0.050 1.2 0.3 1.7 0.65 0.45 0.3 0.85 0.7 1.2 1.15 0.55 0.75 0.95 1.65 1.15 2.7v0.15c0.1 0.65-0.3 1.25-0.95 1.45-0.1 0.050-0.2 0.050-0.3 0.050-0.4 0.050-0.75-0.050-1.050-0.3s-0.5-0.55-0.55-0.95c-0.1-0.7-0.25-1.3-0.55-1.75-0.25-0.45-0.65-0.8-1.050-0.9-0.15-0.050-0.35-0.050-0.5 0-0.2 0.050-0.35 0.2-0.45 0.35-0.15 0.2-0.25 0.4-0.25 0.7-0.050 0.3-0.050 0.6 0 0.9 0.1 0.6 0.3 1.3 0.65 2 0.15 0.3 0.35 0.65 0.55 1s0.45 0.65 0.65 0.9c0.55 0.65 1.050 1.15 1.6 1.55 0.65 0.45 1.3 0.75 1.95 0.85s1.4 0.1 2.15-0.15c0.6-0.15 0.95 0.050 1.050 0.35 0.1 0.25-0.050 0.65-0.65 0.85h-0.050c-0.9 0.3-1.85 0.4-2.7 0.25-0.85-0.1-1.75-0.5-2.6-1-0.7-0.45-1.3-1.050-1.95-1.75-0.25-0.3-0.5-0.6-0.7-0.85l-0.1-0.15c-0.3-0.35-0.55-0.7-0.75-1.050-0.6-0.8-0.95-1.6-1.1-2.4zM23.35 27.95c0.9 1.15 4.85 0 5.5-1.3 2.6-5.3 0-7.6 0-7.6l-5.5 0.75c0 0.050-1.1 6.75 0 8.15z"></path>
<path fill="#3e4347" style="fill: var(--color1, #3e4347)" d="M15.9 27.95c-0.9 1.15-4.85 0-5.5-1.3-2.6-5.3 0-7.6 0-7.6l5.5 0.75c0 0.050 1.15 6.75 0 8.15z"></path>
<path fill="#fff" style="fill: var(--color2, #fff)" d="M17.25 27.6c-0.050 0.55-1.3 0.85-2.8 0.7s-2.65-0.65-2.65-1.2c0.050-0.55 1.2 0.15 2.7 0.25 1.55 0.2 2.8-0.25 2.75 0.25zM22 27.6c0.050 0.55 1.3 0.85 2.8 0.7s2.65-0.65 2.65-1.2c-0.050-0.55-1.2 0.15-2.7 0.25-1.55 0.2-2.8-0.25-2.75 0.25z"></path>
<path fill="#4c5359" style="fill: var(--color3, #4c5359)" d="M19.6 30.2c1 1.1 4.45 1.050 5.55 0 1.5-1.5 1.45-8.35 1.5-11.65l-6.5-0.55c0.050 0-1.8 10.75-0.55 12.2z"></path>
<path fill="#4c5359" style="fill: var(--color3, #4c5359)" d="M19.65 30.2c-1 1.1-4.45 1.050-5.55 0-1.5-1.5-1.45-8.35-1.5-11.65l6.5-0.55s1.8 10.75 0.55 12.2z"></path>
<path fill="#fff" style="fill: var(--color2, #fff)" d="M17 21.85l2.65 5.6 2.65-5.6z"></path>
<path fill="#4c5359" style="fill: var(--color3, #4c5359)" d="M29.95 1.1c-1.2-0.7-7.4 2.55-8.65 4.75l8.95 5.3c1.2-2.15 0.85-9.4-0.3-10.050z"></path>
<path fill="#f7a4a4" style="fill: var(--color4, #f7a4a4)" d="M28.1 4.4c-0.45-0.25-4.1 1.4-4.8 2.6l5 2.95c0.65-1.15 0.2-5.3-0.2-5.55z"></path>
<path fill="#4c5359" style="fill: var(--color3, #4c5359)" d="M9.35 1.1c-1.2 0.7-1.55 7.85-0.3 10.050l8.95-5.3c-1.2-2.15-7.5-5.45-8.65-4.75z"></path>
<path fill="#f7a4a4" style="fill: var(--color4, #f7a4a4)" d="M11.25 4.4c-0.45 0.25-0.9 4.35-0.2 5.55l4.95-2.95c-0.65-1.15-4.35-2.85-4.75-2.6z"></path>
<path fill="#4c5359" style="fill: var(--color3, #4c5359)" d="M19.65 4.7c-10.4 0-11.4 7.3-11.4 11.35 0 1.7 5.1 6.95 11.35 6.95 6.3 0 11.4-5.25 11.4-6.95 0-4.050-1-11.35-11.35-11.35z"></path>
<path fill="#bfffab" style="fill: var(--color5, #bfffab)" d="M16.75 14.25s-1.2 1.8-3.4 1.25-2.3-2.7-2.3-2.7 1.2-1.8 3.4-1.25c2.2 0.6 2.3 2.7 2.3 2.7z"></path>
<path fill="#93e67f" style="fill: var(--color6, #93e67f)" d="M16.5 13.35s-1.050 1.15-2.5 1.15c-1.55 0-2.5-2.2-2.5-2.2s1.050-1.2 2.9-0.7c1.75 0.4 2.1 1.75 2.1 1.75z"></path>
<path fill="#4c5359" style="fill: var(--color3, #4c5359)" d="M14.9 13.3c0 2.45-1.2 2.45-1.2 0s1.2-2.45 1.2 0z"></path>
<path fill="#bfffab" style="fill: var(--color5, #bfffab)" d="M22.55 14.25s1.2 1.8 3.4 1.25 2.3-2.7 2.3-2.7-1.2-1.8-3.4-1.25c-2.2 0.6-2.3 2.7-2.3 2.7z"></path>
<path fill="#93e67f" style="fill: var(--color6, #93e67f)" d="M22.75 13.35s1.050 1.15 2.5 1.15c1.55 0 2.5-2.2 2.5-2.2s-1.050-1.2-2.9-0.7c-1.75 0.4-2.1 1.75-2.1 1.75z"></path>
<path fill="#4c5359" style="fill: var(--color3, #4c5359)" d="M24.35 13.3c0 2.45 1.2 2.45 1.2 0 0.050-2.45-1.2-2.45-1.2 0z"></path>
<path fill="#fff" style="fill: var(--color2, #fff)" d="M22.95 16.25c-1-0.75-2.1-3.25-3.3-3.25s-2.35 2.5-3.3 3.25c-1.55 1.2-5.75 2.55-5.75 2.55s4.45 3.8 9.050 3.8 9.050-3.8 9.050-3.8-4.2-1.35-5.75-2.55z"></path>
<path fill="#4c5359" style="fill: var(--color3, #4c5359)" d="M22.85 19.65c-0.35 0.2-0.8 0.3-1.2 0.3-0.4-0.050-0.8-0.15-1.1-0.4s-0.55-0.6-0.6-0.95l-0.3-1.65-0.3 1.65c-0.050 0.4-0.3 0.7-0.6 0.95s-0.7 0.4-1.1 0.4c-0.45 0-0.85-0.050-1.2-0.3-0.35-0.2-0.7-0.55-0.85-1 0 0.5 0.3 0.95 0.65 1.25s0.9 0.5 1.35 0.55c0.5 0.050 1-0.1 1.45-0.4 0.25-0.15 0.4-0.35 0.6-0.6 0.15 0.25 0.35 0.45 0.6 0.6 0.45 0.3 0.95 0.45 1.45 0.4 0.5 0 1-0.2 1.35-0.55 0.4-0.3 0.65-0.8 0.65-1.25-0.15 0.45-0.45 0.8-0.85 1z"></path>
<path fill="#4c5359" style="fill: var(--color3, #4c5359)" d="M21.2 16.55c-0.3-0.35-1.25-0.4-1.55-0.4s-1.25 0.050-1.55 0.4c-0.2 0.25-0.050 0.9 0.55 1.5 0.35 0.35 0.7 0.45 1 0.45s0.65-0.1 1-0.45c0.6-0.6 0.75-1.25 0.55-1.5z"></path>
<path fill="#fff" style="fill: var(--color2, #fff)" d="M19.5 29.8c0 0.55-1.15 0.95-2.6 0.95s-2.6-0.45-2.6-0.95c0-0.55 1.15 0.050 2.6 0.050 1.4 0 2.6-0.55 2.6-0.050zM24.95 29.8c0 0.55-1.15 0.95-2.6 0.95s-2.6-0.45-2.6-0.95c0-0.55 1.15 0.050 2.6 0.050s2.6-0.55 2.6-0.050z"></path>
<path fill="#3e4347" style="fill: var(--color1, #3e4347)" d="M14.8 30.6l0.7-1.2-0.2 1.4zM16.55 31l0.25-1.65 0.25 1.65zM18.5 30.8l-0.2-1.3 0.7 1.15zM24 30.8l-0.2-1.4 0.7 1.2zM22.2 31l0.25-1.65 0.25 1.65zM20.25 30.65l0.7-1.15-0.2 1.3z"></path>
</symbol>
<symbol id="icon-penguin" viewBox="0 0 32 32">
<path fill="#e08828" style="fill: var(--color7, #e08828)" d="M13.15 30.25c-0.4 0-1.3 0.35-1.6 0.050-0.4-0.4 0-2.3 0-2.3h-1.15s0.4 1.9 0 2.3c-0.3 0.25-1.2-0.050-1.6-0.050-1 0-1.85 0.75-1.85 0.75h8c0.050 0-0.75-0.75-1.8-0.75zM23.15 30.25c-0.4 0-1.3 0.35-1.6 0.050-0.4-0.4 0-2.3 0-2.3h-1.15s0.4 1.9 0 2.3c-0.3 0.25-1.2-0.050-1.6-0.050-1 0-1.85 0.75-1.85 0.75h8c0.050 0-0.75-0.75-1.8-0.75z"></path>
<path fill="#3e4347" style="fill: var(--color1, #3e4347)" d="M5.2 13.5c-5.4 3.35-4.35 8-3.55 7.45 8.35-6.1 10.45-11.7 3.55-7.45zM26.8 13.5c-6.9-4.25-4.8 1.35 3.55 7.45 0.8 0.55 1.85-4.1-3.55-7.45z"></path>
<path fill="#3e4347" style="fill: var(--color1, #3e4347)" d="M24 8.75c0-4.3-3.6-7.75-8-7.75s-8 3.45-8 7.75c0 5.8-2 7.75-2 11.6 0 5.3 4.5 9.65 10 9.65s10-4.35 10-9.65c0-3.85-2-5.8-2-11.6z"></path>
<path fill="#fff" style="fill: var(--color2, #fff)" d="M22 9.4c0-6.2-5.050-5-5.050-0.35h-1.85c-0.050-4.65-5.1-5.85-5.1 0.35 0 4.85-2 7.85-2 11.050 0 5.8 3.85 8.55 8 8.55s8-2.8 8-8.55c0-3.2-2-6.2-2-11.050z"></path>
<path fill="#3e4347" style="fill: var(--color1, #3e4347)" d="M20.5 8.5c0 0.85-0.45 1.5-1 1.5s-1-0.65-1-1.5 0.45-1.5 1-1.5 1 0.65 1 1.5zM13.5 8.5c0 0.85-0.45 1.5-1 1.5s-1-0.65-1-1.5 0.45-1.5 1-1.5 1 0.65 1 1.5z"></path>
<path fill="#e08828" style="fill: var(--color7, #e08828)" d="M14 11h4c0 1.25-0.9 2.3-2 2.3s-2-1-2-2.3z"></path>
<path fill="#f29a2e" style="fill: var(--color8, #f29a2e)" d="M18.5 11.15l-2.5 0.6-2.5-0.6c0-1.6 1.1-2.85 2.5-2.85s2.5 1.3 2.5 2.85z"></path>
<path fill="#3e4347" style="fill: var(--color1, #3e4347)" d="M16.85 8.9c0.15 0.15 0.2 0.35 0.15 0.45s-0.25 0-0.4-0.15-0.2-0.35-0.15-0.45c0.1-0.050 0.3 0 0.4 0.15zM15.15 8.9c-0.15 0.15-0.2 0.35-0.15 0.45s0.25 0 0.4-0.15 0.2-0.35 0.15-0.45c-0.1-0.050-0.3 0-0.4 0.15z"></path>
</symbol>
<symbol id="icon-pig" viewBox="0 0 32 32">
<path fill="#ffa8a7" style="fill: var(--color9, #ffa8a7)" d="M17.63 23.495c0 0.375 0.11 1.315 0.11 1.69s0.235 1.125 1.255 1.233c1.578 0.163 1.965-0.66 2.148-1.62 0.247-1.302 0.102-2.85 0.102-2.85z"></path>
<path fill="#ffd2b1" style="fill: var(--color10, #ffd2b1)" d="M29.948 4.912c0.445-0.095 1.032 0.048 1.055-0.4 0.027-0.54-0.657-0.893-1.477-0.657-0.817 0.232-1.080 0.938-1.080 0.938s-0.927-0.433-1.738 0.21c-0.915 0.728-0.985 2.252-0.985 2.252l1.29 1.242s0.032-1.44 0.235-1.97c0.258-0.68 0.705-0.563 0.705-0.563s-0.492 1.36 0.188 2.183c0.815 0.985 2.628 0.563 2.37-1.103-0.152-0.99-1.102-1.595-1.102-1.595s0.205-0.468 0.54-0.537zM29.267 7.705c-0.747 0.085-0.515-1.22-0.375-1.595 0.61 0.258 0.985 1.522 0.375 1.595z"></path>
<path fill="#ffd2b1" style="fill: var(--color10, #ffd2b1)" d="M11.492 6.215c4.547-1.85 13.512-2.27 16.543 2.57 3.063 4.893 0.95 8.025 0.598 8.905-0.505 1.262-0.95 2.885-1.055 3.73-0.125 0.992-0.282 3.555-0.387 4.082s-1.020 1.302-1.97 1.233-1.725-0.668-1.795-1.233c-0.070-0.563 0.21-1.97-0.457-2.462s-2.675-0.175-3.872 0.457-6.85 3.58-13.162 0.81c-6.335-2.782-4.857-8.803-3.308-10.563s1.373-2.113 1.373-2.113-1.547 0.387-0.95-0.845 2.147-3.272 2.428-3.45c0.282-0.175 1.197-0.458 1.69-0.14s0.492 0.775 0.492 0.775 0.81-0.527 3.835-1.758z"></path>
<path fill="#ffd2b1" style="fill: var(--color10, #ffd2b1)" d="M5.192 23.46s0.070 2.462 0.105 3.063 0.117 1.573 0.21 2.043c0.105 0.527 0.53 0.83 1.373 0.88 1.162 0.070 1.725-0.422 1.83-0.845s0.21-4.223 0.21-4.223z"></path>
<path fill="#ffd2b1" style="fill: var(--color10, #ffd2b1)" d="M11.775 24.55s-0.010 1.232 0.035 2.462c0.035 0.95 0.035 2.043 0.14 2.323 0.175 0.468 1.020 0.74 1.76 0.775 0.81 0.038 1.355-0.37 1.69-0.705 0.175-0.175 0.175-1.055 0.21-2.322 0.020-0.74 0.070-2.92 0.070-2.92z"></path>
<path fill="#e6508f" style="fill: var(--color11, #e6508f)" d="M15.705 10.895c-0.188-0.408-1.145 0-1.385 0.61-0.305 0.775 0 1.525 0.445 2.37 0.305 0.578 1.69 2.37 3.285 1.995 1.855-0.438 1.337-3.332 1.268-3.66s-0.293-0.765-0.68-0.705c-0.445 0.070-0.233 0.81-0.21 1.36 0.023 0.61 0.047 1.643-0.68 1.807-0.777 0.175-1.328-0.335-1.76-1.033-0.422-0.68-0.915-1.197-0.775-1.83 0.088-0.39 0.633-0.61 0.492-0.915z"></path>
<path fill="#e6508f" style="fill: var(--color11, #e6508f)" d="M6.202 10.12c-0.355-0.137-0.775 0.4-1.173 0.728s-1.125 0.75-1.407 0.4c-0.292-0.367 0.63-1.33 1.173-2.252 0.47-0.797 0.91-1.713 1.525-1.76 0.915-0.070 0.202-0.48-0.47-0.353-0.492 0.095-1.173 0.54-1.548 1.29s-2.16 2.652-1.572 3.52c0.675 1 2.158 0.54 2.815 0s1.080-1.408 0.657-1.572z"></path>
<path fill="#ff7d86" style="fill: var(--color12, #ff7d86)" d="M7.375 17.3c-1.29-0.235-3.345 0.125-3.495 1.573-0.118 1.125 0.61 2.488 2.98 3.003s3.543-0.375 3.66-1.643c0.117-1.265-1.22-2.58-3.145-2.933z"></path>
<path fill="#2d2d2b" style="fill: var(--color13, #2d2d2b)" d="M6.555 19.317c0.050 0.567-0.105 0.977-0.445 1.010-0.34 0.030-0.817-0.37-0.867-0.938s0.1-1.032 0.54-1.032c0.34 0 0.72 0.392 0.772 0.96z"></path>
<path fill="#2d2d2b" style="fill: var(--color13, #2d2d2b)" d="M8.182 18.759c0.36 0.034 0.611 0.501 0.559 1.042s-0.385 0.953-0.745 0.919c-0.36-0.034-0.611-0.501-0.559-1.042s0.385-0.953 0.745-0.919z"></path>
<path fill="#2d2d2b" style="fill: var(--color13, #2d2d2b)" d="M13.28 15.358c0.563 0.056 0.967 0.639 0.901 1.303s-0.576 1.156-1.139 1.101c-0.563-0.056-0.967-0.639-0.901-1.303s0.576-1.156 1.139-1.101z"></path>
<path fill="#2d2d2b" style="fill: var(--color13, #2d2d2b)" d="M5.828 13.86c0.581 0.058 1 0.637 0.935 1.293s-0.589 1.143-1.17 1.085c-0.581-0.058-1-0.637-0.935-1.293s0.589-1.143 1.17-1.085z"></path>
</symbol>
<symbol id="icon-telegram" viewBox="0 0 32 32">
<path d="M16 0c-8.838 0-16 7.162-16 16s7.162 16 16 16 16-7.163 16-16-7.163-16-16-16zM23.863 10.969l-2.625 12.369c-0.181 0.881-0.712 1.087-1.45 0.681l-4-2.956-1.919 1.869c-0.225 0.219-0.4 0.4-0.8 0.4-0.519 0-0.431-0.194-0.606-0.688l-1.363-4.475-3.956-1.231c-0.856-0.262-0.862-0.85 0.194-1.269l15.412-5.95c0.7-0.319 1.381 0.169 1.113 1.25z"></path>
</symbol>
<symbol id="icon-youtube" viewBox="0 0 32 32">
<path d="M31.681 9.6c0 0-0.313-2.206-1.275-3.175-1.219-1.275-2.581-1.281-3.206-1.356-4.475-0.325-11.194-0.325-11.194-0.325h-0.012c0 0-6.719 0-11.194 0.325-0.625 0.075-1.987 0.081-3.206 1.356-0.963 0.969-1.269 3.175-1.269 3.175s-0.319 2.588-0.319 5.181v2.425c0 2.587 0.319 5.181 0.319 5.181s0.313 2.206 1.269 3.175c1.219 1.275 2.819 1.231 3.531 1.369 2.563 0.244 10.881 0.319 10.881 0.319s6.725-0.012 11.2-0.331c0.625-0.075 1.988-0.081 3.206-1.356 0.962-0.969 1.275-3.175 1.275-3.175s0.319-2.587 0.319-5.181v-2.425c-0.006-2.588-0.325-5.181-0.325-5.181zM12.694 20.15v-8.994l8.644 4.513-8.644 4.481z"></path>
</symbol>
<symbol id="icon-family" viewBox="0 0 32 32">
<path fill="#e06979" style="fill: var(--color2, #e06979)" d="M22.080 6.323c-3.358 0-6.080 3.578-6.080 3.578s-2.722-3.578-6.080-3.578c-3.358 0-6.080 2.722-6.080 6.080 0 11.066 12.16 13.275 12.16 13.275s12.16-2.209 12.16-13.275c0-3.358-2.722-6.080-6.080-6.080z"></path>
<path fill="#fff" style="fill: var(--color1, #fff)" opacity="0.3" d="M9.92 6.944c3.358 0 6.080 3.515 6.080 3.515s2.722-3.515 6.080-3.515c3.244 0 5.894 2.791 6.070 5.99 0.006-0.175 0.010-0.352 0.010-0.531 0-3.358-2.722-6.080-6.080-6.080s-6.080 3.578-6.080 3.578-2.722-3.578-6.080-3.578c-3.358 0-6.080 2.722-6.080 6.080 0 0.179 0.003 0.356 0.010 0.531 0.176-3.2 2.827-5.99 6.070-5.99z"></path>
<path fill="#e06979" style="fill: var(--color2, #e06979)" opacity="0.4" d="M18.753 12.287c0 1.433 1.161 2.594 2.593 2.594s2.593-1.161 2.593-2.594c0-1.432-1.161-2.593-2.593-2.593s-2.593 1.161-2.593 2.593z"></path>
<path fill="#e06979" style="fill: var(--color2, #e06979)" opacity="0.4" d="M25.932 19.626v-0.457c0-1.671-0.843-3.745-4.271-3.745-2.37 0-3.601 1.727-3.601 3.554v6.126c2.185-0.749 5.625-2.352 7.872-5.479z"></path>
<path fill="#e06979" style="fill: var(--color2, #e06979)" opacity="0.4" d="M13.247 12.287c0 1.433-1.161 2.594-2.593 2.594s-2.593-1.161-2.593-2.594c0-1.432 1.161-2.593 2.593-2.593s2.593 1.161 2.593 2.593z"></path>
<path fill="#e06979" style="fill: var(--color2, #e06979)" opacity="0.4" d="M6.068 19.626v-0.457c0-1.671 0.843-3.745 4.271-3.745 2.37 0 3.601 1.727 3.601 3.554v6.126c-2.185-0.749-5.625-2.352-7.872-5.479z"></path>
<path fill="#e06979" style="fill: var(--color2, #e06979)" opacity="0.4" d="M16 25.677c0 0 0.956-0.174 2.333-0.668l-0.157-2.127c-0.048-0.656-0.124-2.177-0.124-3.195 0-1.131-0.921-2.052-2.052-2.052s-2.052 0.92-2.052 2.052c0 1.018-0.076 2.539-0.124 3.195l-0.157 2.127c1.376 0.494 2.333 0.668 2.333 0.668z"></path>
<path fill="#6e2b72" style="fill: var(--color3, #6e2b72)" d="M20.706 14.88c1.432 0 2.593-1.161 2.593-2.594s-1.161-2.593-2.593-2.593c-1.432 0-2.593 1.161-2.593 2.593s1.161 2.594 2.593 2.594z"></path>
<path fill="#6e2b72" style="fill: var(--color3, #6e2b72)" opacity="0.3" d="M20.707 14.283c-1.331 0-2.428-1.003-2.576-2.295-0.011 0.098-0.018 0.198-0.018 0.299 0 1.432 1.161 2.594 2.593 2.594s2.593-1.161 2.593-2.594c0-0.101-0.006-0.201-0.018-0.299-0.148 1.292-1.244 2.295-2.575 2.295z"></path>
<path fill="#6e2b72" style="fill: var(--color3, #6e2b72)" d="M25.292 20.441v-1.271c0-1.671-0.843-3.745-4.271-3.745-2.37 0-3.601 1.727-3.601 3.554v6.333c1.922-0.586 5.395-1.977 7.872-4.872z"></path>
<path fill="#36417d" style="fill: var(--color4, #36417d)" d="M11.294 14.88c-1.432 0-2.593-1.161-2.593-2.594s1.161-2.593 2.593-2.593c1.432 0 2.593 1.161 2.593 2.593s-1.161 2.594-2.593 2.594z"></path>
<path fill="#36417d" style="fill: var(--color4, #36417d)" opacity="0.3" d="M11.294 14.283c-1.331 0-2.428-1.003-2.576-2.295-0.011 0.098-0.018 0.198-0.018 0.299 0 1.432 1.161 2.594 2.593 2.594s2.593-1.161 2.593-2.594c0-0.101-0.006-0.201-0.018-0.299-0.148 1.292-1.244 2.295-2.575 2.295z"></path>
<path fill="#36417d" style="fill: var(--color4, #36417d)" d="M14.58 25.312v-6.333c0-1.828-1.232-3.555-3.601-3.555-3.427 0-4.271 2.073-4.271 3.745v1.271c2.477 2.894 5.95 4.286 7.872 4.872z"></path>
<path fill="#f2d33c" style="fill: var(--color5, #f2d33c)" d="M16 25.677c0 0 0.87-0.158 2.145-0.602l-0.161-2.179c-0.041-0.56-0.507-0.992-1.068-0.992h-1.832c-0.561 0-1.027 0.433-1.068 0.992l-0.161 2.179c1.275 0.443 2.145 0.602 2.145 0.602z"></path>
<path fill="#f2d33c" style="fill: var(--color5, #f2d33c)" d="M16 21.548c1.027 0 1.86-0.833 1.86-1.86s-0.833-1.86-1.86-1.86c-1.027 0-1.86 0.833-1.86 1.86s0.833 1.86 1.86 1.86z"></path>
<path fill="#f2d33c" style="fill: var(--color5, #f2d33c)" opacity="0.5" d="M16 20.998c-0.934 0-1.707-0.688-1.839-1.585-0.013 0.090-0.020 0.181-0.020 0.275 0 1.027 0.833 1.86 1.86 1.86s1.86-0.833 1.86-1.86c0-0.093-0.007-0.185-0.020-0.275-0.133 0.897-0.906 1.585-1.84 1.585z"></path>
<path fill="#6e2b72" style="fill: var(--color3, #6e2b72)" opacity="0.3" d="M25.172 18.929c0-0.556-0.274-1.155-0.524-1.709-0.291-0.526-0.322-0.755-0.992-1.082-0.045 1.616-0.712 2.889-1.623 4.168-1.269 1.78-2.287 2.332-3.966 2.636-0.591 0.107-1.006 0.622-1.006 1.202 0 0.113 0.016 0.229 0.049 0.344 0.095 0.328 0.321 0.582 0.607 0.731 1.581-0.51 3.993-1.51 6.102-3.311 0.478-0.445 0.934-0.936 1.354-1.477v-1.502z"></path>
<path fill="#6e2b72" style="fill: var(--color3, #6e2b72)" d="M25.292 20.441v-1.271c0-1.146-0.397-2.482-1.752-3.207-0.018 1.682-0.443 3.26-1.388 4.585-1.269 1.78-2.287 2.332-3.966 2.636-0.591 0.107-1.006 0.622-1.006 1.202 0 0.113 0.016 0.229 0.049 0.344 0.062 0.214 0.18 0.396 0.334 0.539 1.947-0.61 5.312-2.004 7.728-4.827z"></path>
<path fill="#36417d" style="fill: var(--color4, #36417d)" opacity="0.3" d="M14.89 24.489c0.034-0.115 0.049-0.231 0.049-0.344 0-0.58-0.415-1.095-1.006-1.202-1.679-0.304-2.698-0.856-3.966-2.636-0.912-1.279-1.578-2.552-1.623-4.168-0.67 0.327-0.7 0.555-0.992 1.082-0.25 0.553-0.524 1.153-0.524 1.709v1.502c0.419 0.542 0.876 1.032 1.354 1.477 2.108 1.801 4.521 2.801 6.102 3.311 0.285-0.148 0.512-0.403 0.607-0.731z"></path>
<path fill="#36417d" style="fill: var(--color4, #36417d)" d="M14.437 25.268c0.154-0.143 0.271-0.325 0.334-0.539 0.034-0.115 0.049-0.231 0.049-0.344 0-0.58-0.415-1.095-1.006-1.202-1.679-0.304-2.698-0.856-3.966-2.636-0.945-1.325-1.369-2.902-1.388-4.585-1.355 0.726-1.752 2.061-1.752 3.207v1.271c2.416 2.824 5.781 4.217 7.728 4.827z"></path>
</symbol>
</defs>
</svg>
